<?xml version="1.0" encoding="UTF-8" standalone="no"?>
<!-- Created with Inkscape (http://www.inkscape.org/) -->

<svg
   width="144.38159mm"
   height="50.376633mm"
   viewBox="0 0 144.38159 50.376633"
   version="1.1"
   id="svg1"
   inkscape:version="1.3 (0e150ed6c4, 2023-07-21)"
   sodipodi:docname="my_portfolio.svg"
   inkscape:export-filename="rc_section_poetry_logo.svg"
   inkscape:export-xdpi="96"
   inkscape:export-ydpi="96"
   xmlns:inkscape="http://www.inkscape.org/namespaces/inkscape"
   xmlns:sodipodi="http://sodipodi.sourceforge.net/DTD/sodipodi-0.dtd"
   xmlns="http://www.w3.org/2000/svg"
   xmlns:svg="http://www.w3.org/2000/svg">
  <sodipodi:namedview
     id="namedview1"
     pagecolor="#ffffff"
     bordercolor="#000000"
     borderopacity="0.25"
     inkscape:showpageshadow="2"
     inkscape:pageopacity="0.0"
     inkscape:pagecheckerboard="0"
     inkscape:deskcolor="#d1d1d1"
     inkscape:document-units="mm"
     inkscape:zoom="0.35355339"
     inkscape:cx="329.51176"
     inkscape:cy="801.85909"
     inkscape:window-width="1920"
     inkscape:window-height="1017"
     inkscape:window-x="-8"
     inkscape:window-y="-8"
     inkscape:window-maximized="1"
     inkscape:current-layer="layer1"
     showgrid="false" />
  <defs
     id="defs1" />
  <g
     inkscape:label="Calque 1"
     inkscape:groupmode="layer"
     id="layer1"
     transform="translate(-34.15379,-116.94912)">
    <path
       id="path1"
       style="fill:#000000;stroke:none;stroke-width:0.169706;stroke-miterlimit:5;paint-order:markers fill stroke"
       d="m 53.778814,116.94938 c -11.433403,0 -19.625034,9.21565 -19.625023,20.58378 -1.1e-5,11.36812 8.191623,20.58376 19.625023,20.58376 z m 2.620306,0 v 24.98197 h 1.915087 c 6.898561,0 12.901784,-5.59241 12.90176,-12.49099 2.4e-5,-6.89854 -6.003199,-12.49099 -12.90176,-12.49098 z m 0,26.71816 7.868141,14.79758 h 12.73087 L 69.12999,143.66754 Z" />
    <g
       id="text24"
       style="font-weight:600;font-size:24.0514px;font-family:Cormorant;-inkscape-font-specification:'Cormorant, Semi-Bold';letter-spacing:0.228299px;word-spacing:0px;stroke-width:25.7238;stroke-miterlimit:5;paint-order:fill markers stroke"
       aria-label="Romain&#10;Cogen"
       transform="matrix(1.3689721,0,0,1.3689721,-35.253911,-34.953516)">
      <path
         id="path36"
         style="-inkscape-font-specification:'Cormorant, Bold'"
         d="m 121.39124,131.52531 c -0.59326,0 -1.21071,0.11193 -1.85208,0.33641 -0.64137,0.20844 -1.1866,0.53754 -1.63556,0.9865 -0.43292,0.44896 -0.64957,1.01018 -0.64957,1.68362 0,0.48103 0.14443,0.95405 0.43305,1.41903 0.30464,0.44896 0.73743,0.81778 1.29863,1.1064 0.1443,0.0722 0.29593,0.13505 0.45527,0.18913 -0.59958,0.32542 -1.04914,0.67911 -1.34514,1.06144 -0.36879,0.49706 -0.55294,0.95409 -0.55294,1.37097 0,0.52914 0.16043,0.92993 0.48111,1.20251 0.27691,0.23538 0.62555,0.41077 1.04593,0.52659 -0.59177,0.41731 -1.06191,0.8109 -1.40715,1.1808 -0.43292,0.48103 -0.72952,0.91432 -0.88987,1.29915 -0.14431,0.40085 -0.21601,0.76967 -0.21601,1.10639 0,0.83378 0.37655,1.49919 1.13017,1.99626 0.76964,0.51309 1.73992,0.76946 2.91041,0.76946 0.83379,0 1.61939,-0.13618 2.35697,-0.40876 0.73758,-0.25654 1.387,-0.61762 1.9482,-1.08262 0.5612,-0.44895 1.00223,-0.96994 1.32291,-1.56321 0.32069,-0.57723 0.4806,-1.19468 0.4806,-1.85208 0,-0.5612 -0.12793,-1.01823 -0.38448,-1.37098 -0.25654,-0.35275 -0.60163,-0.62511 -1.03456,-0.81752 -0.41689,-0.19241 -0.88165,-0.34458 -1.39475,-0.45682 -0.49706,-0.11224 -1.00206,-0.20871 -1.51515,-0.28887 -0.5131,-0.0962 -1.0021,-0.19215 -1.46709,-0.28836 -0.465,-0.0962 -0.84207,-0.24063 -1.13068,-0.43304 -0.27259,-0.20844 -0.40876,-0.49731 -0.40876,-0.8661 0,-0.27258 0.064,-0.5047 0.19223,-0.69712 0.0722,-0.0962 0.16475,-0.18879 0.27699,-0.27698 0.37684,0.0871 0.78861,0.13229 1.23816,0.13229 0.65741,0 1.2991,-0.12019 1.92444,-0.3607 0.64136,-0.24052 1.1706,-0.58509 1.5875,-1.03405 0.4329,-0.44896 0.64905,-0.98594 0.64905,-1.61127 0,-0.5612 -0.16816,-1.05845 -0.50488,-1.49138 -0.32068,-0.44896 -0.76945,-0.80179 -1.34669,-1.05833 -0.57722,-0.27258 -1.24264,-0.40876 -1.99626,-0.40876 z m -0.79375,0.45681 c 0.60931,0 1.13803,0.2966 1.58699,0.88987 0.46499,0.57724 0.69763,1.30714 0.69763,2.18902 0,0.73758 -0.12844,1.25856 -0.38499,1.56321 -0.24052,0.28862 -0.49688,0.43305 -0.76946,0.43305 -0.43293,0 -0.80948,-0.15269 -1.13017,-0.45734 -0.32068,-0.32069 -0.56931,-0.72148 -0.74569,-1.20251 -0.17637,-0.48103 -0.26458,-0.98602 -0.26458,-1.51515 0,-0.6093 0.08,-1.07406 0.2403,-1.39475 0.16034,-0.33672 0.41722,-0.5054 0.76997,-0.5054 z m -0.95033,9.55963 c 0.41249,0.0929 0.83153,0.17926 1.26298,0.25321 0.46499,0.0641 0.92201,0.14461 1.37097,0.24081 0.44896,0.0962 0.84976,0.22465 1.20251,0.38499 0.36879,0.17638 0.65714,0.40851 0.86558,0.69712 0.22448,0.30465 0.33693,0.69771 0.33693,1.17874 0,0.54516 -0.12018,1.01818 -0.3607,1.41903 -0.24051,0.4169 -0.56961,0.72948 -0.9865,0.93793 -0.41689,0.22448 -0.9059,0.33693 -1.4671,0.33693 -0.83377,0 -1.53117,-0.26462 -2.09237,-0.79375 -0.5612,-0.52913 -0.84181,-1.31525 -0.84181,-2.35748 0,-0.48102 0.0402,-0.88182 0.1204,-1.20251 0.0962,-0.30464 0.21639,-0.56927 0.3607,-0.79375 0.0739,-0.10681 0.15026,-0.20709 0.22841,-0.30127 z" />
      <path
         id="path33"
         style="-inkscape-font-specification:'Cormorant, Bold'"
         d="m 110.33972,131.38113 c -0.6093,0 -1.22675,0.0959 -1.85208,0.28835 -0.62534,0.19241 -1.20255,0.48901 -1.73168,0.88987 -0.52913,0.38482 -0.95417,0.88208 -1.27486,1.49138 -0.32068,0.60931 -0.4811,1.33095 -0.4811,2.16473 0,0.89792 0.20065,1.73975 0.60151,2.52543 0.40085,0.76963 0.96981,1.38657 1.70739,1.85156 0.73757,0.465 1.61139,0.69763 2.62154,0.69763 0.94602,0 1.82035,-0.20065 2.62207,-0.60151 0.80171,-0.41689 1.44288,-0.9941 1.92391,-1.73168 0.49706,-0.75361 0.74569,-1.61917 0.74569,-2.59725 0,-0.84982 -0.1924,-1.65142 -0.57722,-2.40503 -0.38482,-0.75361 -0.94605,-1.37105 -1.68362,-1.85208 -0.72155,-0.48103 -1.59536,-0.7214 -2.62155,-0.7214 z m -0.81804,0.50488 c 0.5131,0 1.00211,0.20066 1.4671,0.60151 0.46499,0.40086 0.84206,0.99406 1.13068,1.77974 0.30465,0.78568 0.45682,1.76369 0.45682,2.93418 0,1.13844 -0.16043,2.01999 -0.48111,2.64532 -0.32069,0.62534 -0.80143,0.93845 -1.44281,0.93845 -0.56119,0 -1.07444,-0.22491 -1.53944,-0.67387 -0.46499,-0.44896 -0.83381,-1.08188 -1.10639,-1.89962 -0.27259,-0.83379 -0.40876,-1.7958 -0.40876,-2.88613 0,-1.1705 0.16042,-2.03657 0.48111,-2.59777 0.33672,-0.5612 0.81747,-0.84181 1.4428,-0.84181 z" />
      <path
         id="path22"
         style="-inkscape-font-specification:'Cormorant, Bold'"
         d="m 102.31248,116.46886 c -0.60929,0 -1.22674,0.0965 -1.85208,0.28887 -0.625325,0.19241 -1.202532,0.48901 -1.731668,0.88987 -0.52913,0.38482 -0.953656,0.88208 -1.274341,1.49138 -0.320685,0.6093 -0.481107,1.33043 -0.481107,2.16421 0,0.89792 0.20014,1.73975 0.600997,2.52543 0.400856,0.76964 0.970327,1.38709 1.707907,1.85208 0.737562,0.46499 1.611382,0.69763 2.621532,0.69763 0.94602,0 1.81984,-0.20065 2.62155,-0.60151 0.80171,-0.41689 1.44289,-0.9941 1.92391,-1.73168 0.49707,-0.7536 0.74569,-1.61916 0.74569,-2.59726 0,-0.84981 -0.1924,-1.65192 -0.57722,-2.40553 -0.38482,-0.75361 -0.94604,-1.37054 -1.68362,-1.85157 -0.72154,-0.48103 -1.59535,-0.72192 -2.62155,-0.72192 z m -0.81752,0.5054 c 0.5131,0 1.0021,0.20013 1.4671,0.60099 0.46499,0.40086 0.84154,0.99406 1.13016,1.77974 0.30465,0.78568 0.45734,1.7642 0.45734,2.9347 0,1.13844 -0.16042,2.01999 -0.48111,2.64532 -0.32068,0.62534 -0.80195,0.93793 -1.44332,0.93793 -0.5612,0 -1.07445,-0.22439 -1.53944,-0.67335 -0.465,-0.44896 -0.8333,-1.08239 -1.105878,-1.90014 -0.272587,-0.83378 -0.409277,-1.7958 -0.409277,-2.88613 0,-1.1705 0.16042,-2.03606 0.481105,-2.59726 0.33672,-0.56119 0.81799,-0.8418 1.44332,-0.8418 z" />
      <path
         id="path20"
         style="-inkscape-font-specification:'Cormorant, Bold'"
         d="m 88.194961,110.96119 c -0.529129,0 -1.082614,0.0243 -1.659847,0.0723 -0.561198,0.0481 -1.082184,0.0718 -1.563212,0.0718 -0.577232,0 -1.122463,-0.008 -1.635559,-0.0238 -0.513094,-0.0321 -0.977856,-0.0481 -1.394747,-0.0481 -0.03207,0 -0.04806,0.048 -0.04806,0.14418 0,0.0962 0.01599,0.14418 0.04806,0.14418 0.497062,0 0.865879,0.048 1.106393,0.14417 0.240512,0.0802 0.400419,0.2406 0.48059,0.48111 0.08017,0.22448 0.120406,0.56957 0.120406,1.03456 v 11.13576 c 0,0.46499 -0.04797,0.81782 -0.144177,1.05833 -0.08017,0.24052 -0.240595,0.40042 -0.481107,0.48059 -0.240514,0.0802 -0.609331,0.12041 -1.106393,0.12041 -0.0481,0 -0.07235,0.048 -0.07235,0.14418 0,0.0962 0.02425,0.14469 0.07235,0.14469 0.41689,0 0.881652,-0.008 1.394747,-0.0243 0.52913,-0.0161 1.082615,-0.0243 1.659847,-0.0243 0.609302,0 1.170523,0.008 1.683618,0.0243 0.513096,0.0161 0.977857,0.0243 1.394747,0.0243 0.03207,0 0.04806,-0.0485 0.04806,-0.14469 0,-0.0962 -0.01599,-0.14418 -0.04806,-0.14418 -0.497061,0 -0.865878,-0.0402 -1.106392,-0.12041 -0.240514,-0.0802 -0.40042,-0.24007 -0.480591,-0.48059 -0.08017,-0.24051 -0.120406,-0.59334 -0.120406,-1.05833 v -5.58002 c 0.192411,0.0161 0.400805,0.0243 0.625285,0.0243 h 0.697632 c 0.185722,0 0.369922,-0.0113 0.552937,-0.0315 0.867779,1.4927 1.655763,2.79962 2.356962,3.90364 0.75361,1.1705 1.3953,2.06856 1.924431,2.69389 0.545164,0.62534 0.937709,0.93793 1.178222,0.93793 h 1.539441 2.741952 c 0.03207,0 0.04806,-0.0485 0.04806,-0.14469 0,-0.0962 -0.01599,-0.14418 -0.04806,-0.14418 -0.64137,0 -1.315042,-0.26463 -2.020549,-0.79375 -0.705507,-0.54517 -1.515356,-1.41897 -2.429309,-2.62155 -0.854965,-1.1603 -1.889499,-2.6955 -3.093351,-4.58266 0.279831,-0.16558 0.541403,-0.35367 0.784448,-0.56431 0.497062,-0.43292 0.890123,-0.92193 1.17874,-1.46709 0.304649,-0.54517 0.456819,-1.12238 0.456819,-1.73168 0,-0.96206 -0.408536,-1.70743 -1.226281,-2.23656 -0.801713,-0.54516 -1.940146,-0.81803 -3.415296,-0.81803 z m -0.361218,0.50539 c 0.432925,0 0.817733,0.0959 1.154451,0.28836 0.33672,0.17637 0.601341,0.5132 0.79375,1.01027 0.192412,0.49706 0.288872,1.21871 0.288872,2.16473 0,1.17048 -0.176413,1.96435 -0.529167,2.38125 -0.352753,0.41689 -0.95421,0.62528 -1.804024,0.62528 -0.192411,0 -0.416796,-0.008 -0.673344,-0.0243 -0.256548,-0.0161 -0.496923,-0.0403 -0.721403,-0.0723 v -4.81005 c 0,-0.36878 0.04797,-0.6654 0.144177,-0.88986 0.0962,-0.24052 0.248375,-0.40919 0.45682,-0.5054 0.22448,-0.11224 0.52108,-0.16795 0.889868,-0.16795 z" />
      <path
         id="path32"
         style="-inkscape-font-specification:'Cormorant, Bold'"
         d="m 151.98244,116.49315 c -0.83378,0 -1.6034,0.24862 -2.30891,0.74569 -0.48564,0.33112 -0.93614,0.74011 -1.3534,1.22318 -0.0227,-0.56853 -0.10829,-1.01723 -0.25787,-1.34359 -0.17637,-0.38482 -0.35279,-0.57722 -0.52917,-0.57722 -0.016,0 -0.0722,0.016 -0.16846,0.0481 l -3.34295,1.63556 c -0.0321,0.016 -0.0321,0.0722 0,0.16846 0.0321,0.0962 0.08,0.12819 0.14418,0.0961 0.24052,-0.11221 0.45716,-0.19216 0.64957,-0.2403 0.19241,-0.0641 0.36057,-0.0966 0.50488,-0.0966 0.27259,0 0.46499,0.1207 0.57723,0.36122 0.11224,0.22448 0.16846,0.58504 0.16846,1.0821 v 4.52169 c 0,0.64136 -0.0882,1.0824 -0.26458,1.32292 -0.17638,0.22448 -0.51322,0.33641 -1.01028,0.33641 -0.0481,0 -0.0718,0.0485 -0.0718,0.14469 0,0.0962 0.0238,0.14418 0.0718,0.14418 0.32069,0 0.6895,-0.008 1.1064,-0.0243 0.41688,-0.0161 0.84966,-0.0238 1.29862,-0.0238 0.465,0 0.90603,0.008 1.32292,0.0238 0.41689,0.0161 0.78571,0.0243 1.10639,0.0243 0.0481,0 0.0724,-0.048 0.0724,-0.14418 0,-0.0962 -0.0242,-0.14469 -0.0724,-0.14469 -0.49706,0 -0.84163,-0.11193 -1.03404,-0.33641 -0.17638,-0.24052 -0.26459,-0.68156 -0.26459,-1.32292 v -5.14129 c 0.22423,-0.19989 0.47998,-0.37101 0.76947,-0.51108 0.5131,-0.24051 1.01035,-0.3607 1.49138,-0.3607 0.67344,0 1.16245,0.2084 1.46709,0.62528 0.32069,0.4169 0.48111,1.05859 0.48111,1.92443 v 3.46336 c 0,0.64136 -0.0882,1.0824 -0.26458,1.32292 -0.17638,0.22448 -0.51322,0.33641 -1.01028,0.33641 -0.0481,0 -0.0723,0.0485 -0.0723,0.14469 0,0.0962 0.0242,0.14418 0.0723,0.14418 0.32069,0 0.68951,-0.008 1.10639,-0.0243 0.4169,-0.0161 0.84967,-0.0238 1.29863,-0.0238 0.465,0 0.90603,0.008 1.32292,0.0238 0.41689,0.0161 0.78571,0.0243 1.10639,0.0243 0.0481,0 0.0724,-0.048 0.0724,-0.14418 0,-0.0962 -0.0242,-0.14469 -0.0724,-0.14469 -0.49706,0 -0.84163,-0.11193 -1.03404,-0.33641 -0.17638,-0.24052 -0.26459,-0.68156 -0.26459,-1.32292 v -4.61781 c 0,-0.88188 -0.24863,-1.60352 -0.74569,-2.16472 -0.48102,-0.5612 -1.17069,-0.84181 -2.0686,-0.84181 z" />
      <path
         id="path30"
         style="-inkscape-font-specification:'Cormorant, Bold'"
         d="m 140.71014,111.32189 c -0.44896,0 -0.81004,0.12844 -1.08262,0.38499 -0.25655,0.24052 -0.38447,0.5691 -0.38447,0.98598 0,0.465 0.12792,0.82608 0.38447,1.08262 0.27258,0.25656 0.63366,0.38448 1.08262,0.38448 0.92999,0 1.39475,-0.489 1.39475,-1.4671 0,-0.41688 -0.12019,-0.74546 -0.3607,-0.98598 -0.24052,-0.25655 -0.58509,-0.38499 -1.03405,-0.38499 z m 0.91364,5.21932 c -0.016,0 -0.0398,0.008 -0.0718,0.0243 l -3.63182,1.68362 c -0.0481,0.016 -0.0564,0.0717 -0.0243,0.16795 0.0481,0.0962 0.10433,0.13647 0.16847,0.12041 0.17637,-0.0802 0.3368,-0.14417 0.48111,-0.19224 0.16034,-0.0481 0.29652,-0.0724 0.40876,-0.0724 0.27258,0 0.45724,0.12845 0.55345,0.38499 0.11224,0.24052 0.16795,0.62532 0.16795,1.15446 v 4.30516 c 0,0.64136 -0.0877,1.0824 -0.26407,1.32292 -0.17637,0.22448 -0.51321,0.33641 -1.01027,0.33641 -0.0481,0 -0.0724,0.0485 -0.0724,0.14469 0,0.0962 0.0242,0.14418 0.0724,0.14418 0.32068,0 0.68898,-0.008 1.10587,-0.0243 0.4169,-0.0161 0.85019,-0.0238 1.29915,-0.0238 0.46499,0 0.90603,0.008 1.32292,0.0238 0.41689,0.0161 0.7857,0.0243 1.10639,0.0243 0.0481,0 0.0718,-0.048 0.0718,-0.14418 0,-0.0962 -0.0237,-0.14417 -0.0718,-0.14417 -0.49707,0 -0.84216,-0.11245 -1.03456,-0.33693 -0.17638,-0.24052 -0.26459,-0.68156 -0.26459,-1.32292 v -4.35322 c 0,-0.83378 0.008,-1.47496 0.0243,-1.92392 0.016,-0.44896 0.0238,-0.7698 0.0238,-0.96221 0,-0.0641 -0.0397,-0.13635 -0.11989,-0.21653 -0.0802,-0.0802 -0.16064,-0.1204 -0.24081,-0.1204 z" />
      <path
         id="path28"
         style="-inkscape-font-specification:'Cormorant, Bold'"
         d="m 132.95351,116.56549 c -0.43292,0 -0.92193,0.08 -1.4671,0.2403 -0.54516,0.14431 -1.0744,0.3527 -1.5875,0.62529 -0.49706,0.25654 -0.91385,0.55314 -1.25056,0.88986 -0.33672,0.32069 -0.50488,0.65752 -0.50488,1.01028 0,0.30464 0.0882,0.54502 0.26458,0.7214 0.17637,0.17637 0.46472,0.26458 0.86558,0.26458 0.41689,0 0.74599,-0.1042 0.9865,-0.31264 0.24055,-0.22448 0.38447,-0.56905 0.43253,-1.03404 0.0321,-0.465 0.10429,-0.82607 0.21653,-1.08263 0.11224,-0.27258 0.26492,-0.46498 0.45734,-0.57722 0.19241,-0.12827 0.40854,-0.19224 0.64905,-0.19224 0.30465,0 0.54503,0.1042 0.7214,0.31265 0.17638,0.20844 0.30483,0.52104 0.38499,0.93792 0.0802,0.4169 0.12041,0.93788 0.12041,1.56321 v 1.90531 l -2.4536,0.78859 c -0.92998,0.30465 -1.61913,0.58526 -2.06809,0.84181 -0.43292,0.24051 -0.64957,0.64956 -0.64957,1.22679 0,0.49706 0.15268,0.88187 0.45734,1.15446 0.30464,0.25654 0.70544,0.38499 1.20251,0.38499 0.36878,0 0.77732,-0.0645 1.22628,-0.19276 0.44896,-0.1443 0.874,-0.32072 1.27486,-0.52916 l 1.10329,-0.60307 c 0.0717,0.30568 0.18429,0.56389 0.34003,0.77153 0.28861,0.38482 0.57696,0.57723 0.86558,0.57723 0.0962,0 0.17668,-0.016 0.24081,-0.0481 l 2.47685,-1.17874 c 0.0801,-0.0321 0.0961,-0.0878 0.0481,-0.16795 -0.0321,-0.0962 -0.08,-0.1287 -0.14418,-0.0966 -0.24051,0.11224 -0.47315,0.16847 -0.69763,0.16847 -0.30465,0 -0.54503,-0.12793 -0.7214,-0.38447 -0.16035,-0.25655 -0.2403,-0.61763 -0.2403,-1.08262 v -4.25711 c 0,-0.91395 -0.24863,-1.57937 -0.74569,-1.99626 -0.49706,-0.43292 -1.09851,-0.64906 -1.80402,-0.64906 z m 0.28887,5.67769 v 1.77819 c 0,0.17756 0.009,0.34461 0.0263,0.50178 l -0.31522,0.17156 c -0.25655,0.11225 -0.49692,0.20045 -0.7214,0.26459 -0.20845,0.0481 -0.37661,0.0723 -0.50488,0.0723 -0.28862,0 -0.52951,-0.0964 -0.72192,-0.28887 -0.19242,-0.1924 -0.28836,-0.45703 -0.28836,-0.79375 0,-0.27258 0.0882,-0.50522 0.26459,-0.69763 0.19241,-0.19241 0.505,-0.36882 0.93792,-0.52917 z" />
      <path
         id="path26"
         style="-inkscape-font-specification:'Cormorant, Bold'"
         d="m 116.17779,116.49315 c -0.80171,0 -1.54708,0.24862 -2.23656,0.74569 -0.45731,0.32665 -0.88445,0.72902 -1.28261,1.20354 -0.0239,-0.55906 -0.109,-1.00142 -0.25683,-1.32395 -0.17637,-0.38482 -0.35279,-0.57722 -0.52917,-0.57722 -0.016,0 -0.0717,0.016 -0.16794,0.0481 l -3.34347,1.63556 c -0.0321,0.016 -0.0321,0.0722 0,0.16846 0.0321,0.0962 0.08,0.12819 0.14418,0.0961 0.24051,-0.11221 0.45716,-0.19268 0.64957,-0.24081 0.19241,-0.0641 0.36057,-0.0961 0.50488,-0.0961 0.27259,0 0.46499,0.12019 0.57723,0.3607 0.11224,0.22448 0.16846,0.58556 0.16846,1.08262 v 4.52169 c 0,0.64136 -0.0882,1.0824 -0.26458,1.32292 -0.17638,0.22448 -0.51321,0.33641 -1.01028,0.33641 -0.0481,0 -0.0718,0.048 -0.0718,0.14418 0,0.0962 0.0238,0.14469 0.0718,0.14469 0.32069,0 0.6895,-0.008 1.1064,-0.0243 0.41688,-0.0161 0.85018,-0.0243 1.29914,-0.0243 0.46499,0 0.90602,0.008 1.32292,0.0243 0.41688,0.0161 0.78519,0.0243 1.10587,0.0243 0.0481,0 0.0724,-0.048 0.0724,-0.14418 0,-0.0962 -0.0242,-0.14469 -0.0724,-0.14469 -0.49706,0 -0.84163,-0.11193 -1.03404,-0.33641 -0.17638,-0.24052 -0.26459,-0.68156 -0.26459,-1.32292 v -5.16351 c 0.2052,-0.19018 0.43705,-0.35407 0.69764,-0.48886 0.46499,-0.24051 0.94574,-0.3607 1.4428,-0.3607 1.20257,0 1.80403,0.85009 1.80403,2.54971 v 3.46336 c 0,0.64136 -0.0959,1.0824 -0.28836,1.32292 -0.17638,0.22448 -0.51321,0.33641 -1.01027,0.33641 -0.0481,0 -0.0724,0.048 -0.0724,0.14418 0,0.0962 0.0242,0.14469 0.0724,0.14469 0.32068,0 0.6895,-0.008 1.10639,-0.0243 0.41689,-0.0161 0.84967,-0.0243 1.29863,-0.0243 0.46499,0 0.90602,0.008 1.32292,0.0243 0.41688,0.0161 0.7857,0.0243 1.10639,0.0243 0.0641,0 0.0961,-0.0485 0.0961,-0.14469 0,-0.0962 -0.032,-0.14418 -0.0961,-0.14418 -0.49706,0 -0.84163,-0.11193 -1.03405,-0.33641 -0.17637,-0.24052 -0.26458,-0.68156 -0.26458,-1.32292 v -4.88239 c 0,-0.0543 -0.003,-0.10537 -0.005,-0.15813 0.23411,-0.24397 0.5076,-0.44887 0.82269,-0.61185 0.465,-0.24051 0.94626,-0.3607 1.44332,-0.3607 1.20257,0 1.80351,0.85009 1.80351,2.54971 v 3.46336 c 0,0.64136 -0.096,1.0824 -0.28835,1.32292 -0.17638,0.22448 -0.51322,0.33641 -1.01028,0.33641 -0.0481,0 -0.0723,0.048 -0.0723,0.14418 0,0.0962 0.0242,0.14469 0.0723,0.14469 0.32069,0 0.68951,-0.008 1.10639,-0.0243 0.4169,-0.0161 0.84967,-0.0243 1.29863,-0.0243 0.465,0 0.90603,0.008 1.32292,0.0243 0.41689,0.0161 0.78571,0.0243 1.10639,0.0243 0.0641,0 0.0961,-0.0485 0.0961,-0.14469 0,-0.0962 -0.032,-0.14418 -0.0961,-0.14418 -0.49706,0 -0.84163,-0.11193 -1.03404,-0.33641 -0.17638,-0.24052 -0.26459,-0.68156 -0.26459,-1.32292 v -4.61781 c 0,-1.02619 -0.23264,-1.77982 -0.69763,-2.26084 -0.46499,-0.49707 -1.12267,-0.74569 -1.97249,-0.74569 -0.80171,0 -1.54708,0.24862 -2.23655,0.74569 -0.51633,0.3688 -0.99465,0.83279 -1.43557,1.39009 -0.0846,-0.60454 -0.30297,-1.0843 -0.65681,-1.43815 -0.465,-0.46499 -1.12267,-0.69763 -1.97249,-0.69763 z" />
      <path
         id="path42"
         style="-inkscape-font-specification:'Cormorant, Bold'"
         d="m 144.91746,131.4049 c -0.83378,0 -1.6034,0.24863 -2.3089,0.74569 -0.48565,0.33112 -0.93666,0.74011 -1.35392,1.22318 -0.0227,-0.56847 -0.1083,-1.01725 -0.25787,-1.34359 -0.17637,-0.38482 -0.35279,-0.57722 -0.52917,-0.57722 -0.016,0 -0.0723,0.016 -0.16846,0.0481 l -3.34295,1.63556 c -0.0321,0.016 -0.0321,0.0722 0,0.16846 0.0321,0.0962 0.08,0.12819 0.14418,0.0961 0.24052,-0.11221 0.45716,-0.19216 0.64957,-0.2403 0.19241,-0.0641 0.36057,-0.0961 0.50488,-0.0961 0.27259,0 0.46498,0.12018 0.57722,0.3607 0.11224,0.22448 0.16847,0.58504 0.16847,1.0821 v 4.52169 c 0,0.64137 -0.0882,1.0824 -0.26458,1.32292 -0.17638,0.22448 -0.51322,0.33641 -1.01028,0.33641 -0.0481,0 -0.0718,0.0485 -0.0718,0.14469 0,0.0962 0.0238,0.14418 0.0718,0.14418 0.32069,0 0.6895,-0.008 1.10639,-0.0238 0.41689,-0.0161 0.85019,-0.0243 1.29915,-0.0243 0.46499,0 0.90551,0.008 1.3224,0.0243 0.41689,0.016 0.78571,0.0238 1.10639,0.0238 0.0481,0 0.0724,-0.048 0.0724,-0.14418 0,-0.0962 -0.0242,-0.14417 -0.0724,-0.14417 -0.49706,0 -0.84163,-0.11245 -1.03404,-0.33693 -0.17638,-0.24052 -0.26459,-0.68155 -0.26459,-1.32292 v -5.14129 c 0.22423,-0.19989 0.47998,-0.37049 0.76947,-0.51056 0.5131,-0.24051 1.01035,-0.36122 1.49138,-0.36122 0.67344,0 1.16245,0.20891 1.46709,0.6258 0.32069,0.41689 0.48111,1.05807 0.48111,1.92392 v 3.46335 c 0,0.64137 -0.0882,1.0824 -0.26458,1.32292 -0.17638,0.22448 -0.51322,0.33641 -1.01028,0.33641 -0.0481,0 -0.0718,0.0485 -0.0718,0.14469 0,0.0962 0.0237,0.14418 0.0718,0.14418 0.32069,0 0.68951,-0.008 1.10639,-0.0238 0.4169,-0.0161 0.85019,-0.0243 1.29915,-0.0243 0.46499,0 0.90551,0.008 1.3224,0.0243 0.41689,0.016 0.78571,0.0238 1.10639,0.0238 0.0481,0 0.0724,-0.048 0.0724,-0.14418 0,-0.0962 -0.0243,-0.14469 -0.0724,-0.14469 -0.49706,0 -0.84163,-0.11193 -1.03404,-0.33641 -0.17638,-0.24052 -0.26459,-0.68155 -0.26459,-1.32292 v -4.61781 c 0,-0.88188 -0.24863,-1.60352 -0.74569,-2.16472 -0.48102,-0.5612 -1.17017,-0.84181 -2.06809,-0.84181 z" />
      <path
         style="-inkscape-font-specification:'Cormorant, Bold'"
         d="m 129.80861,134.60381 -0.0241,-0.45698 5.26726,-0.12026 v 0.52913 z"
         id="path40" />
      <path
         style="-inkscape-font-specification:'Cormorant, Bold'"
         d="m 132.65892,141.26604 q -1.56334,0 -2.66971,-0.64938 -1.08231,-0.64939 -1.65955,-1.70765 -0.55318,-1.08232 -0.55318,-2.28489 0,-1.41903 0.72154,-2.5735 0.72155,-1.17851 1.94817,-1.87601 1.25067,-0.69749 2.81401,-0.69749 1.49119,0 2.28488,0.64939 0.7937,0.62534 0.7937,1.7317 0,0.26457 -0.0481,0.48103 -0.0481,0.21646 -0.21646,0.21646 h -2.30894 q 0.0481,-1.13041 -0.26456,-1.85195 -0.31267,-0.7456 -1.13042,-0.7456 -0.96206,0 -1.56334,1.01016 -0.60129,0.98611 -0.60129,2.64565 0,1.34688 0.43293,2.35704 0.43292,1.01016 1.25067,1.56334 0.81775,0.55319 1.97222,0.55319 0.57723,0 1.22662,-0.16836 0.67344,-0.16836 1.20257,-0.50508 0.0481,-0.0481 0.12026,0.0481 0.0962,0.0962 0.0481,0.16836 -0.8899,0.8899 -1.82791,1.27472 -0.91395,0.36077 -1.97221,0.36077 z"
         id="path39" />
      <path
         style="-inkscape-font-specification:'Cormorant, Bold'"
         d="m 123.95225,133.44934 0.0481,-0.76965 q 0.76964,-0.60128 1.49118,-0.91395 0.7456,-0.31267 1.6355,-0.31267 0.12026,0 0.14431,0.19241 0.0481,0.19242 0.0481,0.48103 0,0.33672 -0.0962,0.7456 -0.0962,0.40887 -0.16836,0.33672 -0.45697,-0.19242 -0.91395,-0.28862 -0.45698,-0.12026 -0.8899,-0.12026 -0.26457,0 -0.55318,0.0481 -0.28862,0.0241 -0.60129,0.14431 z"
         id="path38" />
      <path
         style="-inkscape-font-specification:'Cormorant, Bold'"
         d="m 98.482179,125.68074 q 1.010159,0 2.164631,0.16836 1.17851,0.16836 1.85195,0.48102 0.21647,0.0722 0.28862,0.19242 0.0722,0.0962 0.0962,0.36077 l 0.28861,3.34314 q 0,0.0722 -0.12026,0.0962 -0.0962,0.024 -0.1443,-0.0722 -0.7937,-1.85195 -2.16463,-2.91022 -1.346878,-1.05826 -3.198835,-1.05826 -1.611444,0 -2.74186,0.81775 -1.106364,0.81775 -1.683598,2.28488 -0.553182,1.44309 -0.553182,3.3672 0,1.65955 0.408874,3.12668 0.408874,1.44308 1.154467,2.54945 0.745593,1.08231 1.779803,1.70765 1.034211,0.62533 2.284883,0.62533 1.53929,0 2.741858,-1.01015 1.22662,-1.01016 2.18868,-3.12669 0.0481,-0.0962 0.16836,-0.0721 0.12026,0.024 0.12026,0.0962 l -0.36078,3.27099 q -0.0481,0.28861 -0.12025,0.38482 -0.0481,0.0721 -0.26457,0.16836 -1.10636,0.40887 -2.23678,0.60128 -1.106362,0.19241 -2.164623,0.19241 -2.332986,0 -3.992533,-0.69749 -1.659546,-0.72154 -2.717808,-1.87601 -1.03421,-1.17851 -1.539289,-2.54944 -0.481028,-1.39499 -0.481028,-2.74186 0,-1.77981 0.721542,-3.19884 0.745593,-1.41903 1.996266,-2.42919 1.274724,-1.01016 2.862116,-1.53929 1.611444,-0.55318 3.367196,-0.55318 z"
         id="path17" />
    </g>
  </g>
</svg>
