<?xml version="1.0" encoding="UTF-8" standalone="no"?>
<!-- Created with Inkscape (http://www.inkscape.org/) -->

<svg
   width="20.038069mm"
   height="33.785892mm"
   viewBox="0 0 20.038069 33.785892"
   version="1.1"
   id="svg1"
   inkscape:version="1.3 (0e150ed6c4, 2023-07-21)"
   sodipodi:docname="my_portfolio.svg"
   inkscape:export-filename="rc_section_poetry_logo.svg"
   inkscape:export-xdpi="96"
   inkscape:export-ydpi="96"
   xmlns:inkscape="http://www.inkscape.org/namespaces/inkscape"
   xmlns:sodipodi="http://sodipodi.sourceforge.net/DTD/sodipodi-0.dtd"
   xmlns="http://www.w3.org/2000/svg"
   xmlns:svg="http://www.w3.org/2000/svg">
  <sodipodi:namedview
     id="namedview1"
     pagecolor="#ffffff"
     bordercolor="#000000"
     borderopacity="0.25"
     inkscape:showpageshadow="2"
     inkscape:pageopacity="0.0"
     inkscape:pagecheckerboard="0"
     inkscape:deskcolor="#d1d1d1"
     inkscape:document-units="mm"
     inkscape:zoom="0.35355339"
     inkscape:cx="329.51176"
     inkscape:cy="801.85909"
     inkscape:window-width="1920"
     inkscape:window-height="1017"
     inkscape:window-x="-8"
     inkscape:window-y="-8"
     inkscape:window-maximized="1"
     inkscape:current-layer="layer1"
     showgrid="false" />
  <defs
     id="defs1" />
  <g
     inkscape:label="Calque 1"
     inkscape:groupmode="layer"
     id="layer1"
     transform="translate(-94.980936,-120.8143)">
    <g
       id="rect7"
       transform="matrix(-0.72092565,0,-0.338475,0.6365284,235.52268,93.135591)"
       inkscape:export-filename=".\rect7.svg"
       inkscape:export-xdpi="96"
       inkscape:export-ydpi="96">
      <path
         id="path16"
         style="color:#000000;fill:#000000;stroke-width:1.66181;stroke-miterlimit:5;-inkscape-stroke:none;paint-order:markers fill stroke"
         d="m 157.78227,47.717728 -3e-4,31.439296 h -26.27481 c 0.33286,-2.649841 1.14789,-5.49987 2.47236,-8.468691 l -2e-4,5.152996 h 20.48846 l -1.3e-4,-24.807906 h -3.81207 c 1.75237,-1.238699 3.55374,-2.349549 5.37481,-3.315695 z" />
    </g>
    <g
       id="path8"
       style="fill:#000000;stroke:none"
       transform="matrix(1.1980447,0,0,1.1980447,-88.02139,108.25634)">
      <path
         id="path14"
         style="color:#000000;fill:#000000;stroke:none;stroke-miterlimit:5;-inkscape-stroke:none;paint-order:markers fill stroke"
         d="M 152.75088,10.482048 V 38.68291 h 2.16214 c 7.78746,0 14.56349,-6.312975 14.56346,-14.100431 3e-5,-7.787456 -6.776,-14.100458 -14.56346,-14.100431 z m 1.87586,1.875337 h 0.28732 c 6.77412,-2.4e-5 12.68763,5.52478 12.6876,12.224577 3e-5,6.699798 -5.91348,12.226644 -12.6876,12.226644 h -0.28732 z" />
    </g>
  </g>
</svg>
